REM DIRINDEX 1\2,1\3,1\4
REM DIRNAME cjc151,folder01,folder02,folder03
TITLE ""
FILE "095 095_TOEFL_3900.mp3" MP3
  TRACK 01 AUDIO
    TITLE "2:cjc151_4134"
    INDEX 01 00:00:00
  TRACK 02 AUDIO
    TITLE "0:"
    INDEX 01 00:01:21
  TRACK 03 AUDIO
    TITLE "3:cjc151_4135"
    INDEX 01 00:03:02
  TRACK 04 AUDIO
    TITLE "0:"
    INDEX 01 00:07:03
  TRACK 05 AUDIO
    TITLE "2:cjc151_4136"
    INDEX 01 00:08:60
  TRACK 06 AUDIO
    TITLE "0:"
    INDEX 01 00:09:55
  TRACK 07 AUDIO
    TITLE "3:cjc151_4137"
    INDEX 01 00:11:31
  TRACK 08 AUDIO
    TITLE "0:"
    INDEX 01 00:15:28
  TRACK 09 AUDIO
    TITLE "2:cjc151_4138"
    INDEX 01 00:17:18
  TRACK 10 AUDIO
    TITLE "0:"
    INDEX 01 00:18:07
  TRACK 11 AUDIO
    TITLE "3:cjc151_4139"
    INDEX 01 00:19:67
  TRACK 12 AUDIO
    TITLE "0:"
    INDEX 01 00:22:48
  TRACK 13 AUDIO
    TITLE "2:cjc151_4140"
    INDEX 01 00:24:27
  TRACK 14 AUDIO
    TITLE "0:"
    INDEX 01 00:25:21
  TRACK 15 AUDIO
    TITLE "3:cjc151_4141"
    INDEX 01 00:27:00
  TRACK 16 AUDIO
    TITLE "0:"
    INDEX 01 00:30:20
  TRACK 17 AUDIO
    TITLE "2:cjc151_4142"
    INDEX 01 00:32:03
  TRACK 18 AUDIO
    TITLE "0:"
    INDEX 01 00:32:60
  TRACK 19 AUDIO
    TITLE "3:cjc151_4143"
    INDEX 01 00:34:45
  TRACK 20 AUDIO
    TITLE "0:"
    INDEX 01 00:38:12
  TRACK 21 AUDIO
    TITLE "2:cjc151_4144"
    INDEX 01 00:39:66
  TRACK 22 AUDIO
    TITLE "0:"
    INDEX 01 00:40:64
  TRACK 23 AUDIO
    TITLE "3:cjc151_4145"
    INDEX 01 00:42:43
  TRACK 24 AUDIO
    TITLE "0:"
    INDEX 01 00:46:37
  TRACK 25 AUDIO
    TITLE "2:cjc151_4146"
    INDEX 01 00:48:16
  TRACK 26 AUDIO
    TITLE "0:"
    INDEX 01 00:49:20
  TRACK 27 AUDIO
    TITLE "3:cjc151_4147"
    INDEX 01 00:50:74
  TRACK 28 AUDIO
    TITLE "0:"
    INDEX 01 00:54:11
  TRACK 29 AUDIO
    TITLE "2:cjc151_4148"
    INDEX 01 00:55:65
  TRACK 30 AUDIO
    TITLE "0:"
    INDEX 01 00:57:29
  TRACK 31 AUDIO
    TITLE "3:cjc151_4149"
    INDEX 01 00:59:08
  TRACK 32 AUDIO
    TITLE "0:"
    INDEX 01 01:04:09
  TRACK 33 AUDIO
    TITLE "2:cjc151_4150"
    INDEX 01 01:05:64
  TRACK 34 AUDIO
    TITLE "0:"
    INDEX 01 01:07:17
  TRACK 35 AUDIO
    TITLE "3:cjc151_4151"
    INDEX 01 01:08:74
  TRACK 36 AUDIO
    TITLE "0:"
    INDEX 01 01:12:68
  TRACK 37 AUDIO
    TITLE "2:cjc151_4152"
    INDEX 01 01:14:49
  TRACK 38 AUDIO
    TITLE "0:"
    INDEX 01 01:15:58
  TRACK 39 AUDIO
    TITLE "3:cjc151_4153"
    INDEX 01 01:17:35
  TRACK 40 AUDIO
    TITLE "0:"
    INDEX 01 01:20:73
  TRACK 41 AUDIO
    TITLE "2:cjc151_4154"
    INDEX 01 01:22:52
  TRACK 42 AUDIO
    TITLE "0:"
    INDEX 01 01:24:00
  TRACK 43 AUDIO
    TITLE "3:cjc151_4155"
    INDEX 01 01:25:53
  TRACK 44 AUDIO
    TITLE "0:"
    INDEX 01 01:29:52
  TRACK 45 AUDIO
    TITLE "2:cjc151_4156"
    INDEX 01 01:31:32
  TRACK 46 AUDIO
    TITLE "0:"
    INDEX 01 01:32:27
  TRACK 47 AUDIO
    TITLE "3:cjc151_4157"
    INDEX 01 01:34:06
  TRACK 48 AUDIO
    TITLE "0:"
    INDEX 01 01:38:34
  TRACK 49 AUDIO
    TITLE "2:cjc151_4158"
    INDEX 01 01:40:11
  TRACK 50 AUDIO
    TITLE "0:"
    INDEX 01 01:41:20
  TRACK 51 AUDIO
    TITLE "3:cjc151_4159"
    INDEX 01 01:43:02
  TRACK 52 AUDIO
    TITLE "0:"
    INDEX 01 01:47:29
  TRACK 53 AUDIO
    TITLE "2:cjc151_4160"
    INDEX 01 01:49:08
  TRACK 54 AUDIO
    TITLE "0:"
    INDEX 01 01:51:25
  TRACK 55 AUDIO
    TITLE "3:cjc151_4161"
    INDEX 01 01:53:06
  TRACK 56 AUDIO
    TITLE "0:"
    INDEX 01 01:56:59
  TRACK 57 AUDIO
    TITLE "2:cjc151_4162"
    INDEX 01 01:58:44
  TRACK 58 AUDIO
    TITLE "0:"
    INDEX 01 01:59:44
  TRACK 59 AUDIO
    TITLE "3:cjc151_4163"
    INDEX 01 02:01:23
  TRACK 60 AUDIO
    TITLE "0:"
    INDEX 01 02:04:21
  TRACK 61 AUDIO
    TITLE "2:cjc151_4164"
    INDEX 01 02:06:10
  TRACK 62 AUDIO
    TITLE "0:"
    INDEX 01 02:07:29
  TRACK 63 AUDIO
    TITLE "3:cjc151_4165"
    INDEX 01 02:09:09
  TRACK 64 AUDIO
    TITLE "0:"
    INDEX 01 02:12:29
  TRACK 65 AUDIO
    TITLE "2:cjc151_4166"
    INDEX 01 02:14:16
  TRACK 66 AUDIO
    TITLE "0:"
    INDEX 01 02:15:25
  TRACK 67 AUDIO
    TITLE "3:cjc151_4167"
    INDEX 01 02:17:04
  TRACK 68 AUDIO
    TITLE "0:"
    INDEX 01 02:21:33
  TRACK 69 AUDIO
    TITLE "2:cjc151_4168"
    INDEX 01 02:23:11
  TRACK 70 AUDIO
    TITLE "0:"
    INDEX 01 02:24:22
  TRACK 71 AUDIO
    TITLE "3:cjc151_4169"
    INDEX 01 02:26:01
  TRACK 72 AUDIO
    TITLE "0:"
    INDEX 01 02:30:52
  TRACK 73 AUDIO
    TITLE "2:cjc151_4170"
    INDEX 01 02:32:33
  TRACK 74 AUDIO
    TITLE "0:"
    INDEX 01 02:33:50
  TRACK 75 AUDIO
    TITLE "3:cjc151_4171"
    INDEX 01 02:35:32
  TRACK 76 AUDIO
    TITLE "0:"
    INDEX 01 02:39:45
  TRACK 77 AUDIO
    TITLE "2:cjc151_4172"
    INDEX 01 02:41:26
  TRACK 78 AUDIO
    TITLE "0:"
    INDEX 01 02:42:40
  TRACK 79 AUDIO
    TITLE "3:cjc151_4173"
    INDEX 01 02:44:19
  TRACK 80 AUDIO
    TITLE "0:"
    INDEX 01 02:48:21
  TRACK 81 AUDIO
    TITLE "2:cjc151_4174"
    INDEX 01 02:49:73
  TRACK 82 AUDIO
    TITLE "0:"
    INDEX 01 02:51:09
  TRACK 83 AUDIO
    TITLE "3:cjc151_4175"
    INDEX 01 02:52:71
  TRACK 84 AUDIO
    TITLE "0:"
    INDEX 01 02:56:51
  TRACK 85 AUDIO
    TITLE "2:cjc151_4176"
    INDEX 01 02:58:31
  TRACK 86 AUDIO
    TITLE "0:"
    INDEX 01 02:59:32
  TRACK 87 AUDIO
    TITLE "3:cjc151_4177"
    INDEX 01 03:01:11
  TRACK 88 AUDIO
    TITLE "0:"
    INDEX 01 03:04:49
